<svg width="8" height="18" viewBox="0 0 8 18" fill="none" xmlns="http://www.w3.org/2000/svg">
<g clip-path="url(#clip0_96_1470)">
<path d="M1.143 14.0625C1.14208 13.9887 1.15686 13.9156 1.18639 13.8478C1.21591 13.78 1.25953 13.719 1.31443 13.6688L6.04585 9.00002L1.31443 4.33127C1.08585 4.10627 1.08585 3.75752 1.31443 3.53252C1.543 3.30752 1.89728 3.30752 2.12585 3.53252L7.25728 8.60627C7.48585 8.83127 7.48585 9.18002 7.25728 9.40502L2.11443 14.4675C1.88585 14.6925 1.53157 14.6925 1.303 14.4675C1.18871 14.355 1.13157 14.2088 1.13157 14.0738L1.143 14.0625Z" fill="#848484"/>
</g>
<defs>
<clipPath id="clip0_96_1470">
<rect width="18" height="8" fill="white" transform="matrix(0 1 -1 0 8 0)"/>
</clipPath>
</defs>
</svg>
