<svg width="20" height="20" viewBox="0 0 20 20" fill="none" xmlns="http://www.w3.org/2000/svg">
<path d="M18 19L13.8983 14.8983M13.8983 14.8983C14.5999 14.1967 15.1565 13.3638 15.5362 12.4471C15.9159 11.5304 16.1113 10.5479 16.1113 9.55566C16.1113 8.56344 15.9159 7.58093 15.5362 6.66424C15.1565 5.74754 14.5999 4.91461 13.8983 4.213C13.1967 3.51139 12.3638 2.95485 11.4471 2.57514C10.5304 2.19543 9.54789 2 8.55566 2C7.56344 2 6.58093 2.19543 5.66424 2.57514C4.74754 2.95485 3.91461 3.51139 3.213 4.213C1.79604 5.62996 1 7.55178 1 9.55566C1 11.5596 1.79604 13.4814 3.213 14.8983C4.62996 16.3153 6.55178 17.1113 8.55566 17.1113C10.5596 17.1113 12.4814 16.3153 13.8983 14.8983Z" stroke="#EBEAE8" stroke-width="1.5" stroke-linecap="round" stroke-linejoin="round"/>
</svg>
